<?xml version="1.0" encoding="UTF-8" standalone="no"?>
<svg width="29px" height="32px" viewBox="0 0 29 32" version="1.1" xmlns="http://www.w3.org/2000/svg" xmlns:xlink="http://www.w3.org/1999/xlink">
    <!-- Generator: Sketch 44.1 (41455) - http://www.bohemiancoding.com/sketch -->
    <title>avatar 4</title>
    <desc>Created with Sketch.</desc>
    <defs></defs>
    <g id="Page-2-Copy" stroke="none" stroke-width="1" fill="none" fill-rule="evenodd">
        <g id="180" stroke="#979797" transform="translate(-3.000000, 0.000000)">
            <path d="M23,7 C23,10.8659932 19.8659932,14 16,14 C12.1340068,14 9,10.8659932 9,7 C9,3.13400675 12.1340068,0 16,0 C19.8659932,0 23,3.13400675 23,7 Z M11,7 C11,9.76142375 13.2385763,12 16,12 C18.7614237,12 21,9.76142375 21,7 C21,4.23857625 18.7614237,2 16,2 C13.2385763,2 11,4.23857625 11,7 Z M16.0016135,14 C17.5503059,14 19.0632005,14.2612426 20.4879276,14.7657428 C21.0085367,14.950092 21.2811291,15.5215737 21.0967799,16.0421827 C20.9124306,16.5627918 20.340949,16.8353842 19.8203399,16.651035 C18.6094757,16.2222643 17.3223103,16 16.0016135,16 C9.92182241,16 5,20.7256497 5,26.5208645 L5,31 C5,31.5522847 4.55228475,32 4,32 C3.44771525,32 3,31.5522847 3,31 L3,26.5208645 C3,19.6024712 8.83504285,14 16.0016135,14 Z" id="Oval-74" stroke="none" fill="#95909E" fill-rule="nonzero"></path>
            <path d="M25,23 L30.95346,23 C31.4965211,23 31.9453125,23.4477153 31.9453125,24 C31.9453125,24.5561352 31.4987386,25 30.9478618,25 L25,25 L25,30.95346 C25,31.4965211 24.5522847,31.9453125 24,31.9453125 C23.4438648,31.9453125 23,31.4987386 23,30.9478618 L23,25 L16.9974507,25 C16.4431111,25 16,24.5522847 16,24 C16,23.4438648 16.4473659,23 16.9992197,23 L18.456665,23 L23,23 L23,16.9974507 C23,16.4431111 23.4477153,16 24,16 C24.5561352,16 25,16.4473659 25,16.9992197 L25,18.456665 L25,23 L25,23 Z" id="Rectangle-372" stroke="none" fill="#2A2630" fill-rule="evenodd"></path>
        </g>
    </g>
</svg>