<svg xmlns:serif="http://www.serif.com/" xmlns:dc="http://purl.org/dc/elements/1.1/" xmlns:cc="http://creativecommons.org/ns#" xmlns:rdf="http://www.w3.org/1999/02/22-rdf-syntax-ns#" xmlns:svg="http://www.w3.org/2000/svg" xmlns="http://www.w3.org/2000/svg" xmlns:sodipodi="http://sodipodi.sourceforge.net/DTD/sodipodi-0.dtd" xmlns:inkscape="http://www.inkscape.org/namespaces/inkscape" width="44" height="44" viewBox="0 0 44 44" version="1.1" xml:space="preserve" style="clip-rule:evenodd;fill-rule:evenodd;stroke-linejoin:round;stroke-miterlimit:1.41420996" id="svg24" sodipodi:docname="puls.svg" inkscape:version="0.92.4 (5da689c313, 2019-01-14)"><metadata id="metadata30"><rdf:RDF><cc:Work rdf:about=""><dc:format>image/svg+xml</dc:format><dc:type rdf:resource="http://purl.org/dc/dcmitype/StillImage"/><dc:title/></cc:Work></rdf:RDF></metadata><defs id="defs28"/><sodipodi:namedview pagecolor="#ffffff" bordercolor="#666666" borderopacity="1" objecttolerance="10" gridtolerance="10" guidetolerance="10" inkscape:pageopacity="0" inkscape:pageshadow="2" inkscape:window-width="1920" inkscape:window-height="1001" id="namedview26" showgrid="false" fit-margin-top="0" fit-margin-left="0" fit-margin-right="0" fit-margin-bottom="0" inkscape:zoom="12.543459" inkscape:cx="18.065527" inkscape:cy="22.517473" inkscape:window-x="-9" inkscape:window-y="-9" inkscape:window-maximized="1" inkscape:current-layer="svg24"/><rect style="opacity:1;vector-effect:none;fill:#005ff9;fill-opacity:1;stroke:none;stroke-width:1.14141726;stroke-linecap:round;stroke-linejoin:miter;stroke-miterlimit:4;stroke-dasharray:none;stroke-dashoffset:0;stroke-opacity:1;paint-order:stroke fill markers" id="rect856" width="44" height="44" x="0" y="0" ry="9.3475008" rx="8.7894421"/><rect id="h44px_-mail_-_bg" serif:id="h44px_@mail_&amp;_bg" x="-20.090151" y="-20.727934" width="115" height="44" style="fill:none"/><clipPath id="_clip1"><rect x="0" y="0" width="115" height="44" id="rect3"/></clipPath><rect x="-4.0901508" y="-12.727934" width="83" height="28" style="fill:none" id="rect8"/><path d="m 26.24041,22 c 0,2.322 -1.889,4.211 -4.211,4.211 -2.322,0 -4.211,-1.889 -4.211,-4.211 0,-2.322 1.889,-4.211 4.211,-4.211 2.322,0 4.211,1.889 4.211,4.211 M 22.02941,8.0000001 C 14.30941,8.0000001 8.0294122,14.28 8.0294122,22 c 0,7.72 6.2799978,14 13.9999978,14 2.828,0 5.555,-0.842 7.886,-2.435 l 0.04,-0.028 -1.886,-2.192 -0.032,0.02 c -1.794,1.155 -3.872,1.765 -6.008,1.765 -6.137,0 -11.129999,-4.993 -11.129999,-11.13 0,-6.137 4.992999,-11.13 11.129999,-11.13 6.137,0 11.13,4.993 11.13,11.13 0,0.795 -0.089,1.6 -0.262,2.392 -0.352,1.445 -1.364,1.887 -2.123,1.829 -0.764,-0.062 -1.658,-0.606 -1.664,-1.938 V 23.268 22 c 0,-3.905 -3.176,-7.081 -7.081,-7.081 -3.905,0 -7.081,3.176 -7.081,7.081 0,3.905 3.176,7.081 7.081,7.081 1.897,0 3.676,-0.741 5.017,-2.09 0.78,1.214 2.051,1.975 3.498,2.091 0.124,0.01 0.251,0.015 0.376,0.015 1.019,0 2.028,-0.341 2.842,-0.958 0.839,-0.638 1.466,-1.559 1.812,-2.666 0.055,-0.179 0.157,-0.588 0.157,-0.591 l 0.003,-0.015 c 0.204,-0.888 0.295,-1.773 0.295,-2.867 0,-7.72 -6.28,-13.9999999 -14,-13.9999999" style="fill:#fffefb;fill-rule:nonzero;fill-opacity:1" id="path18" inkscape:connector-curvature="0"/></svg>